<svg width="15" height="14" viewBox="0.38758087158203125 0.0508575439453125 14.224838256835938 13.898284912109375" fill="none" xmlns="http://www.w3.org/2000/svg">
<path d="M3.7503 0C2.5743 0 1.39829 -2.6077e-08 1.10429 0.028C0.473269 0.063 0.0501952 0.511 0.0215122 1.092C-0.00717074 1.659 -0.00717074 12.313 0.0215122 12.887C0.0573659 13.461 0.501952 13.902 1.10429 13.937C1.75683 13.972 3.89371 13.979 4.50323 13.979C3.4061 13.237 3.25552 11.844 3.15513 9.261C3.09776 7.728 3.14796 2.352 3.15513 2.128L3.18381 0.658L8.95626 6.3V8.05L4.35981 3.577C4.35264 4.466 4.3383 5.621 4.3383 6.678C4.3383 7.7 4.35264 8.638 4.38132 9.135C4.55342 11.949 4.82591 13.272 6.3246 13.79C6.80504 13.951 7.21377 14 7.93084 14C8.51884 14 12.6349 14 13.2229 13.972C13.8539 13.937 14.2841 13.489 14.3128 12.908C14.3343 12.341 14.3343 1.715 14.3128 1.134C14.2698 0.56 13.8252 0.126 13.2229 0.0910001C12.5703 0.0560001 10.4406 0.021 9.82392 0.021C10.921 0.763 11.0645 2.156 11.172 4.746C11.2294 6.279 11.1792 11.648 11.172 11.879L11.1433 13.342L5.3924 7.7V5.95L9.96733 10.423C9.9745 9.534 9.98884 8.379 9.98884 7.322C9.98884 6.3 9.9745 5.362 9.94582 4.872C9.77372 2.051 9.50124 0.728 8.00255 0.21C7.54362 0.049 7.11338 0 6.3963 0H3.7503Z" fill="black"/>
</svg>
