<svg width="48" height="72" viewBox="0 0 48 72" fill="none" xmlns="http://www.w3.org/2000/svg">
<path d="M36 30.0825C42.7499 30.8286 48 36.5512 48 43.5V70.5C48 71.3284 47.3284 72 46.5 72C45.6716 72 45 71.3284 45 70.5V43.5C45 38.2103 41.0884 33.8342 36 33.1064L36 51C36 54.3137 33.3137 57 30 57C27.3212 57 24.9545 56.2811 22.9452 54.8418C22.181 54.2944 21.2647 54.0001 20.3235 54.0001C19.552 54 18.9323 54.4467 18.7115 55.1089C18.3787 56.1074 18.5784 57.0804 19.1968 57.7761L29.6211 69.5034C30.1715 70.1226 30.1157 71.0707 29.4965 71.6211C28.8774 72.1715 27.9293 72.1157 27.3789 71.4965L19.7998 62.97C19.7029 62.9897 19.6027 63 19.5 63H7.5C3.35786 63 0 59.6421 0 55.5V7.49999C0 3.35786 3.35786 1.79244e-06 7.5 1.79244e-06L28.5 0C32.6422 1.23742e-06 36 3.35786 36 7.49999L36 30.0825ZM16.9546 59.7692C15.6233 58.2715 15.1933 56.1767 15.827 54.2757C16.4945 52.273 18.2607 51 20.2512 51C21.8913 51.0001 23.4186 51.4907 24.6922 52.4029C26.1779 53.4672 27.932 54 30 54C31.6569 54 33 52.6569 33 51L33 7.49999C33 5.01471 30.9853 3 28.5 2.99999L7.5 3C5.01472 3 3 5.01471 3 7.49999V55.5C3 57.9853 5.01472 60 7.5 60H17.1597L16.9546 59.7692ZM13.5 9.0001C12.6716 9.0001 12 8.32853 12 7.5001C12 6.67168 12.6716 6.0001 13.5 6.0001H22.5C23.3284 6.0001 24 6.67168 24 7.5001C24 8.32853 23.3284 9.0001 22.5 9.0001H13.5Z" fill="black"/>
</svg>
